<?xml version="1.0" encoding="UTF-8" standalone="no"?>
<svg
   width="16"
   height="16"
   fill="currentColor"
   class="bi bi-heart"
   viewBox="0 0 16 16"
   version="1.1"
   id="svg4"
   sodipodi:docname="heart.svg"
   inkscape:version="1.1 (c68e22c387, 2021-05-23)"
   xmlns:inkscape="http://www.inkscape.org/namespaces/inkscape"
   xmlns:sodipodi="http://sodipodi.sourceforge.net/DTD/sodipodi-0.dtd"
   xmlns="http://www.w3.org/2000/svg"
   xmlns:svg="http://www.w3.org/2000/svg">
  <defs
     id="defs8" />
  <sodipodi:namedview
     id="namedview6"
     pagecolor="#ffffff"
     bordercolor="#666666"
     borderopacity="1.0"
     inkscape:pageshadow="2"
     inkscape:pageopacity="0.0"
     inkscape:pagecheckerboard="0"
     showgrid="false"
     inkscape:zoom="25.84375"
     inkscape:cx="6.7714631"
     inkscape:cy="7.8935913"
     inkscape:window-width="1920"
     inkscape:window-height="1013"
     inkscape:window-x="-9"
     inkscape:window-y="-9"
     inkscape:window-maximized="1"
     inkscape:current-layer="svg4" />
  <path
     id="path2"
     d="M 4.8378906 0 C 0.21094434 0.0034436035 -4.4580625 6.76775 8 15 C 23.333 4.867 12.719781 -3.0414687 8.1757812 1.1445312 A 3.12 3.12 0 0 0 8 1.3144531 C 7.943 1.2554531 7.8842187 1.1975781 7.8242188 1.1425781 C 6.9720312 0.35826563 5.9056475 -0.00079467773 4.8378906 0 z M 11.023438 1.0058594 C 12.436338 0.94985352 13.903359 1.6933594 14.599609 3.0527344 C 15.123609 4.0757344 15.240156 5.5515 14.285156 7.4375 C 13.364156 9.2525 11.452 11.426922 8 13.794922 C 4.548 11.426922 2.6348437 9.2525 1.7148438 7.4375 C 0.75984375 5.5525 0.87739062 4.0757344 1.4003906 3.0527344 C 2.5143906 0.87773437 5.6002031 0.28171875 7.2832031 2.0117188 L 8 2.7480469 L 8.7167969 2.0097656 C 9.3479219 1.3610156 10.175697 1.0394629 11.023438 1.0058594 z M 8 3.25 C 7.8225471 3.25 7.6781359 3.2595799 7.5664062 3.2792969 C 7.4481044 3.2990139 7.3567389 3.3277535 7.2910156 3.3671875 C 7.2187196 3.4066215 7.1688674 3.4564735 7.1425781 3.515625 C 7.1162891 3.568204 7.1035156 3.6340226 7.1035156 3.7128906 L 7.2695312 8.0292969 C 7.2695312 8.0818759 7.2842569 8.1285349 7.3105469 8.1679688 C 7.3302639 8.2074027 7.3685839 8.239336 7.4277344 8.265625 C 7.4868854 8.291914 7.5622842 8.3130269 7.6542969 8.3261719 C 7.7463097 8.3393162 7.861981 8.3457031 8 8.3457031 C 8.138019 8.3457031 8.2536905 8.3393129 8.3457031 8.3261719 C 8.4377161 8.3130269 8.5131146 8.291914 8.5722656 8.265625 C 8.6314166 8.239336 8.6729294 8.2074027 8.6992188 8.1679688 C 8.7189357 8.1285348 8.7285156 8.0818757 8.7285156 8.0292969 L 8.8964844 3.7128906 C 8.9030567 3.6340226 8.8934768 3.5650104 8.8671875 3.5058594 C 8.8408982 3.4467085 8.7942389 3.3968558 8.7285156 3.3574219 C 8.65622 3.3179879 8.5648546 3.2924415 8.453125 3.2792969 C 8.334823 3.2595799 8.1840253 3.25 8 3.25 z M 8 9.5585938 C 7.7962577 9.5585938 7.6294935 9.5777535 7.4980469 9.6171875 C 7.3666003 9.6500495 7.2605086 9.7094819 7.1816406 9.7949219 C 7.0962006 9.8737919 7.0399612 9.9875093 7.0136719 10.138672 C 6.9808099 10.283264 6.9648438 10.464754 6.9648438 10.681641 C 6.9648438 10.898528 6.9808099 11.080018 7.0136719 11.224609 C 7.0399609 11.362628 7.0961999 11.476346 7.1816406 11.568359 C 7.2605086 11.653799 7.3666003 11.713233 7.4980469 11.746094 C 7.6294935 11.785524 7.7962577 11.804687 8 11.804688 C 8.2037423 11.804688 8.3736998 11.785524 8.5117188 11.746094 C 8.6431654 11.713234 8.749257 11.653803 8.828125 11.568359 C 8.906993 11.476349 8.963232 11.362628 8.9960938 11.224609 C 9.0223828 11.080018 9.0351562 10.898528 9.0351562 10.681641 C 9.0351562 10.464754 9.0223828 10.283264 8.9960938 10.138672 C 8.9632321 9.9875093 8.906993 9.8737899 8.828125 9.7949219 C 8.749257 9.7094819 8.6431654 9.6500492 8.5117188 9.6171875 C 8.3736998 9.5777535 8.2037423 9.5585938 8 9.5585938 z "
     style="fill:#dc3545;fill-opacity:1" />
</svg>
